<?xml version="1.0" encoding="UTF-8"?>
<!DOCTYPE svg PUBLIC "-//W3C//DTD SVG 1.1//EN" "http://www.w3.org/Graphics/SVG/1.1/DTD/svg11.dtd">
<svg version="1.1" xmlns="http://www.w3.org/2000/svg" xmlns:xlink="http://www.w3.org/1999/xlink" x="0" y="0" width="248" height="523" viewBox="0, 0, 248, 523">
  <g id="Layer_1">
    <path d="M211.481,176.754 C206.194,168.345 206.074,160.751 207.298,151.104 C209.238,135.748 208.612,121.594 198.671,108.853 C183.37,89.271 156.926,79.421 133.828,72.91 C122.128,69.612 110.126,67.018 98.024,65.752 C91.12,65.035 82.95,64.093 76.235,66.462 C72.179,67.896 69.942,70.716 68.593,74.112 C66.539,71.37 65.091,70.498 62.271,73.74 C51.837,85.756 54.747,107.722 56.007,122.67 C55.5,124.273 55.001,125.876 54.516,127.479 C51.042,139.053 49.798,151.266 46.12,162.713 C43.364,171.263 37.922,174.589 30.047,177.992 C22.031,181.444 15.556,185.719 15.999,195.401 C16.505,206.855 24.183,218.218 31.495,226.521 C37.704,233.553 46.001,238.383 51.949,245.654 C56.218,250.85 58.966,257.093 63.22,262.269 C66.609,266.417 70.94,268.723 75.835,270.762 C84.159,274.243 91.816,277.948 98.981,283.545 C105.829,288.882 112.587,296.665 121.341,298.74 C130.966,301.025 140.578,295.076 148.144,289.845 C158.009,283.025 167.101,274.847 175.031,265.896 C181.022,259.167 185.95,251.679 191.505,244.627 C197.18,237.42 203.859,231.19 209.991,224.398 C216.059,217.676 222.028,209.689 221.95,200.204 C221.874,191.049 216.108,184.109 211.481,176.754" fill="#EEBE92"/>
    <path d="M18.853,426.722 L9.782,267.472 L25.913,258.394 C25.913,258.394 97.47,255.371 129.722,296.701 C129.722,296.701 156.933,262.43 213.38,249.324 L240.591,265.454 L243.614,413.623 L166.017,459.98 L89.405,449.904 L34.983,432.769 L18.853,426.722" fill="#688A84"/>
    <path d="M82.992,486.073 C77.101,478.198 72.023,470.246 66.835,461.97 C64.163,457.709 60.688,453.814 58.165,449.412 C57.019,447.401 55.704,445.074 55.134,442.824 C54.601,440.749 55.661,439.069 54.29,437.058 C57.229,433.318 66.981,438.964 70.8,439.822 C75.328,440.834 81.53,443.745 86.212,442.669 C87.394,430.119 81.902,418.861 79.097,406.88 C75.961,393.514 78.437,381.385 81.136,368.159 C81.958,364.165 89.194,330.57 95.915,345.708 C101.203,357.612 96.239,372.23 95.001,384.451 C93.462,399.61 99.649,412.154 105.788,425.632 C109.113,424.564 109.767,417.146 110.759,414.066 C112.728,407.914 115.026,402.535 118.19,396.874 C122.747,388.726 124.758,379.697 128.71,371.373 C131.993,364.475 141.366,358.238 146.583,353.084 C151.547,348.183 158.493,341.56 164.737,338.128 C169.16,343.507 163.556,353.689 160.927,358.66 C156.229,367.519 151.286,375.697 145.922,384.078 C141.534,390.926 138.223,395.609 136.515,403.576 C135.642,407.632 134.524,411.774 133.497,415.838 C132.626,419.353 129.813,424.058 130.938,427.644 C133.778,425.78 135.677,421.66 137.273,418.721 C140.171,413.412 143.265,408.054 145.985,402.675 C150.507,393.725 155.821,386.476 161.742,378.544 C165.609,373.369 169.772,368.208 174.032,363.258 C177.38,359.363 183.067,352.831 187.969,351.256 C191.948,356.515 190.591,364.292 187.259,369.952 C184.517,374.628 180.621,378.826 177.598,383.361 C174.454,388.085 172.274,393.317 169.448,398.126 C165.258,405.291 162.474,413.208 158.719,420.647 C155.302,427.412 153.023,433.999 152.883,441.537 C153.164,435.314 161.657,427.123 165.413,422.476 C170.946,415.62 176.044,408.87 182.104,402.605 C187.02,397.529 192.328,392.192 198.079,388.085 C201.159,385.878 207.403,381.947 211.207,382.496 C212.528,389.351 208.001,393.598 204.31,398.822 C198.973,406.36 192.132,413.046 187.055,420.71 C183.82,425.583 179.644,431.201 177.372,436.706 C175.523,441.186 174.954,445.89 173.569,450.396 C170.524,460.248 169.048,470.281 166.003,480.146 C164.414,485.328 161.841,491.726 158.901,496.585 C156.067,501.289 151.617,506.583 150.718,512.236 C145.774,512.876 140.915,512.975 135.993,513.664 C129.624,514.55 123.183,516.659 116.784,517.425 C114.063,517.756 111.272,517.271 108.53,517.587 C104.03,518.107 101.871,519.683 98.595,515.597 C96.521,513.017 96.316,510.429 95.648,507.35 C93.884,499.165 87.935,492.675 82.992,486.073" fill="#EEBE92"/>
    <path d="M81.601,193.89 C74.977,193.587 69.583,190.079 66.708,183.982 C63.656,177.499 67.938,171.206 73.219,167.438 C86.431,158.023 100.38,168.908 94.157,184.003 C91.317,190.894 87.598,193.833 80.081,193.13" fill="#FFFFFE"/>
    <path d="M153.727,178.273 C155.681,170.96 163.043,164.886 170.735,167.136 C178.21,169.33 182.794,174.293 181.353,182.513 C178.448,199.015 149.22,195.24 153.727,178.273" fill="#FFFFFE"/>
    <path d="M80.735,165.462 C88.167,161.925 88.983,171.903 89.165,176.79 C89.362,182.189 86.171,201.209 77.782,192.462 C73.169,187.653 73.036,179.714 74.808,173.675 C75.765,170.426 77.508,167.002 80.735,165.462" fill="#675E50"/>
    <path d="M167.774,193.13 C167.944,193.552 168.099,193.967 168.267,194.389 C155.821,196.456 159.176,170.328 168.141,166.953 C183.321,161.229 175.453,195.493 169.286,192.378 L167.774,193.13" fill="#675E50"/>
    <path d="M42.281,56.309 C24.507,49.686 14.747,69.317 10.261,83.309 C6.604,94.714 5.185,105.683 5.149,117.65 C5.114,130.932 7.821,141.851 12.82,154.05 C16.399,162.797 22.664,171.396 23.522,180.945 C26.552,181.261 29.688,175.271 31.559,172.972 C32.177,175.869 31.868,178.751 32.606,181.69 C36.185,182.365 37.036,171.53 39.835,169.744 C41.396,173.204 46.57,181.058 49.614,173.689 C50.874,170.623 49.86,165.237 49.847,162.024 C49.84,157.714 49.313,153.017 50.001,148.749 C51.028,149.994 50.93,151.681 51.688,153.101 C52.716,155.056 54.571,157.109 55.922,158.818 C57.694,161.046 59.599,162.136 61.793,163.578 C62.771,160.456 60.415,155.611 60.422,152.244 C60.442,142.835 60.442,133.526 61.716,124.175 C62.735,116.63 64.374,109.085 65.52,101.597 C66.04,98.271 67.559,93.877 67.235,90.544 C67.2,105.514 72.164,120.378 80.004,133.048 C83.997,139.496 88.913,145.205 93.82,150.943 C96.696,154.283 99.375,158.248 102.771,161.089 C110.153,167.255 109.31,158.607 107.771,153.312 C103.86,139.826 99.079,126.615 95.332,113.072 C96.085,116.806 98.292,120.722 99.685,124.315 C102.159,130.735 105.345,136.662 108.993,142.477 C112.066,147.392 115.646,152.046 118.937,156.828 C120.062,158.466 121.341,162.417 123.794,162.045 C125.285,152.658 119.513,140.009 115.632,131.909 C111.272,122.79 109.985,112.116 106.11,103.243 C111.849,118.669 122.227,132.303 132.176,145.226 C137.61,152.3 142.843,162.038 150.978,166.412 C159.226,155.478 148.875,137.246 144.29,126.826 C144.509,129.392 146.379,132.036 147.356,134.37 C149.29,138.99 151.02,143.757 153.41,148.158 C155.78,152.511 157.242,159.697 160.813,162.832 C162.263,153.874 158.853,144.853 155.751,136.578 C153.114,129.561 149.944,122.902 146.73,116.145 C145.345,113.22 142.919,109.726 142.793,106.421 C142.778,109.275 147.398,114.401 148.868,116.799 C152.566,122.839 156.911,128.316 161.124,133.99 C165.743,140.213 170.968,145.993 175.636,152.187 C178.702,156.244 180.017,160.927 182.941,164.935 C182.794,161.749 184.187,155.675 182.056,153.326 C183.7,156.603 185.593,165.792 189.579,166.671 C189.698,164.872 189.839,163.248 190.43,161.518 C191.294,164.45 193.207,169.083 195.829,170.862 C199.022,173.042 199.113,170.461 201.884,168.971 C204.935,167.332 205.11,169.224 206.349,172.163 C207.474,174.8 208.634,177.521 209.372,180.298 C210.272,183.652 209.59,189.917 214.406,186.324 C219.665,182.386 222.45,174.476 223.097,168.232 C225.34,169.695 225.192,175.053 228.862,175.686 C230.001,170.511 231.788,165.279 232.153,159.971 C233.56,159.802 233.854,161.511 234.685,161.476 C236.724,161.391 238.165,158.811 239.36,157.355 C242.692,153.305 244.008,149.944 242.074,145.107 C237.933,134.714 235.942,123.654 231.935,113.213 C232.638,114.605 234.206,115.378 235.676,115.175 C232.632,96.936 227.625,78.964 219.286,62.377 C210.624,45.143 195.956,33.331 179.777,23.374 C160.308,11.386 139.544,5.374 116.7,4.904 C97.02,4.495 77.888,7.477 62.095,19.95 C49.354,30.026 40.89,40.524 39.469,57.005 C39.926,57.111 40.116,56.878 40.017,56.309 L42.281,56.309" fill="#517187"/>
    <path d="M128.569,299.928 C118.247,285.507 97.723,275.916 81.923,269.131 C65.505,262.079 40.517,254.787 23.121,261.98 C20.098,263.232 21.434,267.929 24.668,266.909 C41.171,261.706 63.298,268.885 78.738,275.037 C86.388,278.089 93.7,282.111 100.781,286.294 C107.454,290.239 116.489,296.068 121.685,302.185 C121.89,303.359 122.663,304.456 123.949,304.8 C124.28,304.878 124.582,304.962 124.913,305.046 C127.696,305.764 130.313,302.374 128.569,299.928" fill="#FFFFFE"/>
    <path d="M128.941,301.721 C126.882,295.716 120.694,293.431 115.512,290.323 C105.45,284.29 95.312,277.885 84.392,273.483 C65.856,266.002 43.786,261.382 23.782,261.361 C19.781,261.361 20.056,267.401 24,267.528 C41.058,268.062 58.446,272.576 74.737,277.554 C82.88,280.05 90.038,283.833 97.448,287.925 C101.147,289.972 104.774,292.067 108.403,294.247 C111.835,296.314 120.651,299.851 122.438,303.767 C124.21,307.648 130.418,305.996 128.941,301.721" fill="#FFFFFE"/>
    <path d="M224.349,253.951 L224.349,253.943 C204.956,254.604 184.538,263.492 167.03,271.331 C158.438,275.178 150.204,280.191 142.356,285.352 C138.946,287.595 135.958,289.972 133.21,292.953 C130.657,295.73 126.979,301.784 123.056,302.769 C121.087,303.253 121.157,306.474 123.196,306.79 C127.113,307.416 129.862,305.11 132.731,302.347 C141.021,294.345 149.431,288.298 159.492,282.701 C178.153,272.316 203.051,261.882 224.587,260.834 C229.271,260.609 228.469,253.74 224.349,253.951" fill="#FFFFFE"/>
    <path d="M189.544,32.255 C190.028,32.255 190.515,32.255 190.992,32.255 C195.415,34.336 199.282,37.894 202.608,41.691 C211.798,52.167 218.695,66.343 222.929,83.056 C224.657,86.74 227.435,89.939 229.453,93.94 C231.366,97.716 232.632,101.703 234.536,106.28 C236.47,110.893 240.015,115.231 238.165,122.241 C233.546,115.21 227.294,109.922 221.473,104.101 C215.806,98.426 209.478,93.322 204.788,86.684 C211.481,87.725 212.606,94.341 218.569,96.113 C222.984,100.662 226.739,105.851 232.356,109.177 C228.159,92.576 217.19,82.74 209.133,69.992 C205.02,67.671 202.657,63.797 198.973,60.556 C197.911,59.621 195.345,59.818 196.075,57.652 C199.585,57.047 201.911,60.19 204.056,62.011 C208.866,66.076 212.648,70.737 217.12,75.792 C217.937,73.114 216.614,70.111 215.672,67.812 C211.79,58.341 204.112,49.995 198.973,41.691 C196.005,38.372 190.894,37.191 189.544,32.255" fill="#1A1919"/>
    <path d="M226.556,114.253 C227.034,114.253 227.52,114.253 228.005,114.253 C231.577,115.948 231.485,120.287 233.081,123.689 C237.005,132.029 243.677,143.806 242.517,156.35 C237.04,156.997 237.313,151.885 234.536,149.818 C235.781,147.701 237.181,151.456 239.613,150.542 C237.56,136.156 230.536,126.727 226.556,114.253" fill="#1A1919"/>
    <path d="M48.032,170.138 C51.668,169.646 50.247,177.401 50.212,181.022 C50.171,185.037 51,190.451 48.765,191.914 C46.099,191.478 47.372,187.646 47.302,185.374 C47.168,180.551 47.864,174.814 48.032,170.138" fill="#1A1919"/>
    <path d="M162.691,171.586 C163.872,171.382 163.95,172.275 164.871,172.318 C164.435,177.197 161.707,179.792 162.691,186.099 C162.319,188.912 166.875,188.96 164.871,191.183 C155.921,193.376 158.985,175.271 162.691,171.586" fill="#1A1919"/>
    <path d="M170.672,176.67 C170.918,179.574 169.378,180.699 169.94,183.926 C168.155,184.784 169.934,189.235 167.044,189.003 C164.379,188.595 167.409,182.408 166.313,178.85 C167.001,178.315 167.423,177.528 167.774,176.67 C168.738,176.67 169.708,176.67 170.672,176.67" fill="#1A1919"/>
    <path d="M80.692,178.119 C81.86,177.915 81.938,178.808 82.872,178.85 C82.957,182.576 82.753,185.994 81.41,188.279 C77.571,188.307 79.005,179.3 80.692,178.119" fill="#1A1919"/>
    <path d="M127.134,191.183 C128.302,190.978 128.379,191.865 129.313,191.914 C130.685,195.205 130.755,199.24 132.211,204.964 C133.055,208.269 134.587,211.39 134.391,212.951 C133.813,217.613 129.532,220.538 123.507,221.663 C123.38,216.938 128.569,217.521 129.313,213.683 C129.427,205.758 124.772,198.959 127.134,191.183" fill="#1A1919"/>
    <path d="M208.401,207.874 C208.12,212.916 205.519,215.63 202.608,218.035 C201.849,219.94 202.024,222.767 198.973,222.387 C199.81,216.206 203.101,212.48 205.512,207.874 C206.476,207.874 207.445,207.874 208.401,207.874" fill="#1A1919"/>
    <path d="M38.597,213.683 C43.427,216.826 44.32,223.927 47.302,228.919 C41.282,227.373 38.315,219.132 38.597,213.683" fill="#1A1919"/>
    <path d="M90.853,236.9 C94.622,236.267 93.876,240.169 95.198,241.983 C100.796,244.62 112.692,245.443 124.962,244.887 C132.661,244.529 141.478,243.98 145.282,242.701 C148.77,241.54 149.972,238.658 152.531,238.355 C155.618,238.214 153.36,242.904 153.263,244.156 C135.199,247.264 106.09,251.131 90.122,243.432 C88.462,241.554 90.149,238.629 90.853,236.9" fill="#1A1919"/>
    <path d="M173.583,20.646 C174.173,19.634 178.371,21.124 177.935,23.543 C175.383,23.677 175.544,21.096 173.583,20.646" fill="#1A1919"/>
    <path d="M85.77,276.816 C87.492,278.96 90.698,279.622 94.474,279.72 C98.757,282.209 102.3,285.436 108.263,286.245 C111.229,288.607 113.528,291.631 117.698,292.777 C117.438,287.749 110.646,286.667 106.09,284.072 C99.375,280.24 93.356,274.665 84.321,274.636 C84.392,275.775 84.223,277.154 85.77,276.816 z M75.603,271.732 C73.353,269.644 70.512,268.125 66.173,268.104 C66.398,271.775 73.964,271.901 75.603,271.732 z M50.93,265.201 C48.04,264.209 41.901,262.648 38.597,264.476 C41.712,265.257 47.484,267.183 50.93,265.201 z M228.005,263.752 C219.047,265.756 209.618,266.269 200.429,268.835 C191.808,271.233 183.278,273.335 175.024,276.092 C157.89,281.822 144.368,290.021 135.839,302.937 C135.579,315.959 136.078,328.706 137.294,339.226 C137.921,344.604 140.22,350.665 137.294,353.738 C135.017,342.607 133.562,327.525 132.942,314.553 C132.718,309.757 134.763,303 130.763,301.489 C124.54,302.318 126.319,309.997 126.41,314.553 C126.747,330.654 129.765,350.159 128.583,364.623 C125.968,363.335 127.374,360.129 127.134,358.097 C124.962,339.781 124.772,320.389 123.507,302.937 C114.226,292.658 99.614,285.732 85.046,279.72 C66.771,272.175 43.708,265.032 19.001,267.38 C18.86,271.107 15.492,271.613 14.648,274.636 C12.715,313.231 18.052,349.618 19.731,387.847 C20.238,399.441 18.909,409.939 21.911,418.327 C25.23,422.497 31.172,424.058 33.521,429.211 C42.372,431.778 51.718,432.776 60.366,435.019 C68.923,437.234 76.776,441.087 85.046,442.999 C87.387,426.364 75.419,410.909 76.333,394.378 C76.89,384.612 81.606,376.378 82.872,366.078 C84.785,359.229 86.501,351.523 88.681,345.757 C89.433,343.732 89.426,340.554 92.302,340.674 C98.285,340.92 98.566,346.847 98.833,350.834 C99.931,367.85 92.892,382.749 95.198,397.283 C95.739,400.636 97.47,403.822 98.109,406.718 C99.571,413.356 98.827,420.851 103.91,425.583 C110.935,409.144 119.97,394.716 128.583,379.866 C129.075,375.999 130.376,372.94 130.763,368.982 C138.012,359.25 147.229,349.716 156.152,342.129 C159.015,339.71 162.839,335.562 167.044,336.322 C168.703,348.697 163.05,356.79 159.063,365.347 C157.84,367.976 156.722,370.718 155.442,373.334 C153.966,376.315 153.179,379.311 151.8,382.039 C149.36,386.925 145.535,391.334 143.103,396.558 C140.452,402.232 138.37,408.04 137.294,414.699 C143.004,410.839 147.005,403.618 150.366,398.007 C156.849,387.115 162.86,376.414 170.672,367.526 C170.903,364.369 172.866,362.935 173.583,360.27 C176.593,357.753 179.7,356.03 183.012,353.738 C185.901,351.734 189.094,347.853 193.903,347.937 C196.181,356.818 189.305,362.646 188.095,370.43 C180.86,380.527 174.173,392.994 169.23,403.808 C168.099,406.261 167.452,409.158 166.313,411.795 C164.161,416.857 159.879,421.154 159.794,427.032 C162.691,428.199 163.022,424.592 164.147,423.404 C174.876,412.132 185.114,399.427 194.62,387.847 C202.144,386.131 207.192,378.221 215.672,379.866 C214.934,387.382 209.218,392.459 205.512,398.007 C201.715,403.681 198.129,409.679 194.62,415.423 C191.034,421.287 188.145,427.7 184.468,433.564 C180.685,439.589 176.191,445.228 174.3,452.436 C180.741,450.874 184.263,446.431 189.544,443.724 C205.849,437.6 219.715,427.011 230.915,416.872 C233.938,414.129 238.544,412.941 239.613,408.891 C240.534,359.11 237.785,312.992 237.434,264.476 C234.136,262.248 230.297,263.246 228.005,263.752 z M29.892,263.752 C31.825,264.519 35.461,265.116 36.417,263.028 C33.984,262.775 31.13,261.375 29.892,263.752 z M114.802,181.022 C112.84,185.361 113.262,192.068 108.993,194.086 C103.91,194.326 100.739,196.47 97.378,198.439 C80.278,199.486 64.148,201.498 46.585,202.067 C43.069,200.998 39.75,199.705 35.7,199.17 C34.702,197.025 32.339,196.224 31.341,194.086 C30.062,191.204 30.356,185.663 27.712,184.65 C21.891,184.686 20.267,193.953 21.181,199.894 C21.778,203.811 26.004,210.765 27.712,214.4 C31.559,222.584 35.546,233.271 42.226,235.451 C44.827,235.142 46.099,233.518 49.488,233.996 C49.306,229.489 48.483,224.061 48.032,218.759 C47.646,214.154 45.571,206.869 49.488,204.964 C51.183,227.218 53.637,248.712 62.552,263.752 C66.56,265.06 70.898,266.044 75.603,266.656 C80.622,272.274 90.059,271.515 97.378,274.636 C98.841,275.262 99.551,276.697 101.013,277.54 C106.11,280.507 110.836,282.35 115.519,284.796 C117.368,287.553 120.173,289.339 122.058,292.06 C122.058,295.189 120.715,296.124 122.774,297.861 C125.292,297.277 125.566,298.943 127.852,298.585 C131.522,296.96 132.97,293.009 135.839,290.604 C137.399,289.311 139.263,288.938 140.923,287.701 C145.696,284.15 149.563,279.369 155.442,277.54 C157.649,275.002 161.426,272.886 164.871,271.015 C168.407,269.081 172.5,266.649 175.755,266.656 C175.066,268.013 172.739,269.56 170.672,271.015 C168.949,272.225 163.81,273.139 167.044,274.636 C186.372,268.076 209.47,265.292 229.453,259.4 C227.892,256.517 223.055,254.808 219.293,253.592 C216.571,252.713 213.907,252.783 210.581,252.868 C205.356,255.132 199.915,256.967 194.62,259.4 C189.41,261.79 184.368,265.819 178.659,265.201 C181.163,260.412 184.116,254.358 185.915,249.24 C189.438,239.199 189.466,225.537 190.992,213.683 C191.329,211.06 190.528,206.244 193.903,204.964 C195.759,212.501 189.979,226.634 195.345,233.271 C214.532,231.169 218.196,213.542 218.569,192.631 C217.12,191.168 215.067,190.331 214.94,187.554 C207.038,187.624 208.19,196.772 201.884,198.439 C190.802,197.574 181.852,200.246 172.852,199.894 C165.946,199.62 159.155,197.482 151.8,196.99 C146.801,196.653 140.613,198.206 135.839,195.535 C134.476,190.859 135.079,184.201 133.659,179.574 C128.808,176.67 118.444,178.167 114.802,181.022 z M223.652,172.318 C226.591,172.395 227.751,165.287 225.108,164.33 C223.997,166.369 224.419,169.927 223.652,172.318 z M158.339,158.529 C155.245,158.101 153.536,159.05 151.083,159.253 C148.938,160.843 153.46,165.849 148.903,165.786 C147.188,164.597 147.356,161.525 146.007,159.978 C142.301,159.668 140.339,161.089 138.012,162.158 C134.637,168.704 138.216,176.255 140.198,181.753 C138.012,184.875 139.298,190.747 141.647,193.362 C150.598,192.054 158.325,193.355 166.313,194.811 C169.329,191.295 173.435,188.862 175.024,183.926 C175.368,177.549 174.891,171.966 172.12,168.683 C171.558,168.521 170.692,168.668 170.672,167.958 C161.335,166.601 160.048,173.295 153.979,175.214 C151.14,171.966 155.505,169.871 157.614,167.958 C159.788,165.997 163.254,163.135 165.595,162.882 C172.388,162.136 176.747,167.241 179.384,172.318 C180.712,180.755 176.114,188.63 172.852,194.811 C179.481,197.595 188.194,194.347 196.8,194.811 C205.02,189.094 211.629,170.518 200.429,163.613 C197.911,163.029 197.637,164.689 195.345,164.33 C194.009,162.769 194.473,159.394 190.992,159.978 C188.897,160.301 191.64,165.462 189.544,165.786 C187.055,164.4 187.435,160.154 184.468,159.253 C177.949,159.725 173.013,158.614 167.044,158.529 C165.11,158.529 165.469,160.822 163.423,160.709 C160.723,160.976 161.517,157.763 158.339,158.529 z M97.378,195.535 C98.988,192.554 102.392,191.351 106.09,190.458 C109.626,183.771 111.229,174.842 109.711,168.683 C105.914,153.277 76.594,158.881 58.917,158.529 C56.358,158.136 57.138,161.096 54.571,160.709 C50.431,156.504 38.034,158.515 34.237,161.433 C29.997,170.749 30.313,188.44 37.142,194.811 C48.884,200.942 67.446,197.412 82.142,196.259 C81.319,192.736 84.56,190.346 86.493,187.554 C87.604,181.107 86.452,175.826 84.321,170.862 C83.625,168.05 87.141,167.874 85.046,165.786 C81.558,165.687 78.956,166.475 77.058,167.958 C78.809,173.415 75.356,177.781 75.603,183.926 C75.398,187.069 79.097,190.085 77.058,192.631 C70.097,190.177 73.753,179.257 73.43,171.586 C67.987,171.129 68.312,179.82 63.27,177.394 C67.91,169.456 74.083,163.05 85.046,161.433 C89.461,165.005 96.063,170.229 94.474,177.394 C91.563,176.923 93.146,171.959 89.391,172.318 C89.7,178.393 90.39,182.456 89.391,188.279 C87.956,190.957 85.468,192.575 85.046,196.259 C89.911,196.779 93.005,195.521 97.378,195.535 z M32.789,156.35 C38.484,154.782 47.52,156.568 53.109,154.894 C52.743,151.034 50.704,147.757 49.488,144.017 C45.571,131.937 44.637,118.613 42.226,105.549 C42.063,104.986 41.62,104.705 40.776,104.825 C36.902,120.314 31.987,138.603 32.789,156.35 z M164.147,154.894 C167.353,155.534 173.449,156.42 176.479,154.894 C167.114,135.481 156.216,117.593 143.827,101.197 C142.898,101.154 142.821,100.269 141.647,100.472 C149.578,118.177 159.239,134.159 164.147,154.894 z M91.57,108.453 C92.54,111.94 92.759,115.477 93.75,118.613 C99.606,137.218 108.206,153.263 116.25,168.683 C115.075,170.117 113.901,173.97 115.519,175.939 C120.419,174.012 127.395,173.836 132.211,173.766 C134.067,171.382 131.36,168.704 132.211,165.054 C133.259,162.706 135.129,161.201 135.839,158.529 C138.075,156.884 142.069,157.003 143.103,154.177 C142.638,150.275 140.543,146.133 138.743,142.561 C132.668,130.475 124.743,119.436 116.981,109.901 C115.863,108.171 113.761,105.71 111.891,103.376 C110.688,101.872 107.7,95.783 106.821,99.017 C111.419,114.816 117.438,130.003 122.774,144.017 C124.589,148.777 128.048,153.853 126.41,159.253 C121.966,159.584 123.183,154.254 120.603,152.722 C110.161,134.138 99.149,116.117 89.391,96.844 C89.355,96.401 89.285,95.979 88.681,96.113 C87.999,101.991 90.39,104.171 91.57,108.453 z M61.821,99.748 C59.704,118.339 56.372,138.413 56.013,154.894 C67.341,155.485 83.766,155.147 95.93,154.177 C95.185,149.831 92.021,147.919 89.391,145.465 C85.538,145.465 81.656,145.465 77.789,145.465 C75.434,146.126 67.91,149.522 67.629,145.465 C71.833,141.929 82.099,144.453 87.949,142.561 C85.538,135.783 81.403,130.721 78.513,124.421 C72.973,110.843 69.668,95.044 66.173,79.428 C66.138,78.978 66.067,78.57 65.442,78.697 C62.876,84.195 62.714,91.894 61.821,99.748 z M34.969,60.556 C32.149,62.328 29.386,64.17 26.271,65.64 C17.335,74.112 12.862,87.704 11.751,104.101 C11.54,107.173 9.263,111.103 12.483,113.537 C20.688,98.806 26.222,81.003 34.237,67.088 C35.481,64.951 37.88,63.2 37.872,60.556 C36.902,60.556 35.938,60.556 34.969,60.556 z M169.94,18.467 C163.781,18.277 157.192,15.218 150.366,14.115 C145.493,13.32 139.495,13.102 133.659,12.659 C124.069,11.942 113.001,10.31 101.73,11.21 C72.923,13.503 53.854,31.046 43.681,51.12 C43.681,53.785 43.681,56.443 43.681,59.107 C42.161,59.529 41.606,60.908 39.321,60.556 C39.778,63.354 37.641,65.337 36.417,67.812 C30.933,78.865 24.155,92.07 19.001,104.825 C15.598,113.276 13.257,117.741 13.917,127.325 C14.528,135.896 14.508,141.472 16.097,149.093 C17.7,156.722 18.825,164.436 23.36,169.414 C23.789,159.921 21.735,145.831 22.629,132.401 C23.171,124.47 25.321,116.419 26.981,109.177 C28.711,101.667 29.386,92.921 34.969,89.588 C35.595,95.115 31.728,100.494 29.892,106.998 C27.129,116.785 25.399,127.402 24.809,140.382 C24.415,149.08 24.126,158.101 26.981,165.786 C31.095,156.005 31.277,144.017 32.789,132.401 C33.513,126.896 34.617,121.306 35.7,115.709 C37.324,107.279 38.695,99.326 41.501,92.485 C43.617,91.458 40.587,85.285 43.681,85.228 C46.45,84.891 45.052,90.896 44.411,91.761 C45.375,111.589 46.781,130.988 53.109,145.465 C59.62,123.675 56.766,92.513 64.731,72.171 C72.882,72.087 69.485,82.718 70.532,88.857 C73.31,105.261 79.603,123.76 87.226,136.753 C89.039,139.861 91.063,143.44 94.474,144.741 C94.137,149.916 98.265,150.626 99.551,154.177 C102.223,154.409 103.565,155.956 106.09,156.35 C106.224,153.206 104.466,150.451 103.187,147.638 C99.298,139.109 95.382,129.842 92.302,120.068 C88.216,107.068 83.526,93.603 82.142,78.697 C87.864,81.206 89.271,88.048 91.57,93.216 C98.742,109.275 105.731,125.883 116.981,138.933 C114.626,128.056 110.667,117.685 106.821,107.728 C103.931,100.275 100.894,93.575 97.378,86.684 C96.38,84.722 93.919,82.705 95.198,80.152 C100.304,79.85 101.646,85.095 103.91,88.132 C110.414,96.844 118.19,106.315 124.962,115.709 C130.341,121.222 133.786,128.646 138.012,135.298 C141.759,142.203 144.298,150.31 149.634,155.625 C153.656,155.548 158.438,156.202 160.512,154.177 C158.613,139.623 153.762,128.021 147.454,117.889 C145.634,111.483 141.345,107.546 139.474,101.197 C135.993,96.451 132.316,91.901 130.763,85.228 C134.714,84.42 133.28,89.011 135.839,89.588 C137.751,90.58 138.595,92.64 140.923,93.216 C151.962,108.066 161.946,124.182 172.12,140.382 C172.985,141.746 173.245,143.271 174.3,144.741 C175.165,145.951 176.367,147.167 177.204,148.362 C178.969,150.894 179.938,154.353 183.012,155.625 C184.144,149.705 180.249,144.734 177.935,139.658 C175.579,134.482 173.188,129.16 170.672,124.421 C168.021,119.421 165.04,115.076 161.968,110.632 C158.985,106.315 155.027,102.223 153.263,96.844 C158.191,96.021 157.073,101.246 159.794,102.645 C168.323,114.429 176.03,127.05 181.563,141.837 C186.028,145.346 184.72,154.641 190.992,156.35 C194.185,153.959 192.454,148.728 191.724,145.465 C190.964,142.119 189.136,138.392 188.095,135.298 C185.747,128.373 183.188,121.003 180.108,114.985 C177.929,110.717 173.78,107.033 174.3,102.645 C178.547,104.424 180.375,109.606 182.288,113.537 C187.989,125.244 192.392,140.754 196.8,154.894 C199.907,158.558 205.195,160.041 207.691,164.33 C209.379,158.607 206.335,153.101 204.788,147.638 C203.255,142.294 202.277,136.564 200.429,131.677 C198.606,126.861 194.071,122.888 195.345,117.889 C199.485,118.599 199.872,123.451 201.152,126.593 C202.622,130.165 203.62,133.765 204.788,137.485 C206.876,144.242 210.152,151.857 211.313,159.253 C211.98,163.486 211.474,167.902 212.044,172.318 C212.458,175.566 212.508,179.778 214.94,182.478 C219.489,182.147 219.989,176.339 220.749,172.318 C221.634,167.677 221.761,162.214 222.204,157.798 C221.874,154.318 225.896,155.21 225.832,151.998 C225.691,147.244 224.145,143.749 222.929,140.382 C221.62,136.789 219.673,133.681 219.293,129.498 C225.038,129.082 224.208,135.228 227.288,137.485 C226.515,148.967 232.441,165.42 228.005,178.119 C224.335,179.138 226.008,174.792 222.929,175.214 C221.241,179.455 220.692,182.464 222.204,186.823 C222.464,202.819 220.565,216.65 214.94,226.74 C211.102,230.881 206.067,233.834 201.152,236.9 C198.762,236.935 197.546,238.13 194.62,237.631 C190.942,245.316 187.813,253.55 183.743,260.848 C188.405,261.284 192.771,258.612 197.531,256.496 C201.722,254.632 206.552,251.342 211.313,250.688 C219.012,249.64 224.391,253.606 233.081,253.592 C232.351,259.414 238.664,258.169 240.345,261.58 C240.169,317.084 243.606,365.206 241.793,416.872 C239.578,418.693 238.868,417.49 235.261,417.603 C231.204,421.273 226.247,424.072 222.929,428.487 C212.297,433.585 204.563,441.565 192.44,445.179 C185.993,449.37 179.602,453.631 172.852,457.512 C169.934,470.773 166.046,483.683 161.243,495.973 C159.788,499.706 159.337,504.284 155.442,506.14 C153.396,502.154 157.692,498.898 158.339,495.256 C162.958,484.871 165.63,472.545 168.507,460.416 C168.507,457.998 168.507,455.579 168.507,453.16 C176.431,442.852 182.083,430.962 188.827,419.775 C195.45,408.771 202.938,398.189 208.401,386.398 C201.202,385.547 197.531,394.33 190.992,396.558 C184.397,404.714 176.95,412.02 170.672,420.507 C169.23,422.693 167.241,424.254 165.595,426.308 C163.985,428.326 162.86,430.822 161.243,432.839 C159.802,434.632 157.89,436.7 156.152,438.647 C154.57,440.44 153.39,444.469 149.634,442.999 C150.226,436.531 153.727,430.808 156.152,425.583 C158.62,420.289 161.56,415.1 164.147,409.615 C165.946,405.811 166.798,401.642 168.507,398.007 C175.073,384 185.634,371.851 188.827,355.193 C182.153,356.501 178.435,360.776 176.479,366.802 C161.024,380.133 152.868,400.763 140.923,417.603 C138.574,420.092 138.067,424.409 135.122,426.308 C133.441,429.232 133.435,433.824 128.583,433.564 C128.456,426.744 131.128,420.169 132.942,413.975 C134.784,407.654 136.028,400.615 138.743,395.103 C140.69,391.165 144.305,388.17 146.724,384.218 C153.536,373.109 159.422,359.834 162.691,345.033 C159.302,343.156 156.44,347.276 154.711,349.386 C146.484,354.462 140.071,361.353 135.122,369.706 C135.544,372.792 134.595,374.501 134.391,376.962 C128.856,385.547 123.063,393.915 117.698,403.808 C114.196,410.269 112.144,417.322 108.993,425.583 C108.347,427.264 106.716,428.916 106.09,430.667 C105.415,432.53 106.497,435.427 103.91,436.468 C99.671,437.326 101.168,432.439 99.551,430.667 C98.032,422.757 95.972,415.374 94.474,407.436 C94.116,404.419 91.942,403.203 91.57,400.179 C90.973,380.183 98.897,363.287 94.474,345.757 C89.355,348.921 88.048,357.683 86.493,364.623 C84.841,372.026 83.59,379.887 81.41,386.398 C78.899,410.839 90.606,423.523 89.391,447.359 C89.306,449.229 90.375,452.147 87.949,453.16 C84.384,453.343 86.466,447.865 84.321,446.628 C77.452,443.583 70.659,440.455 61.821,439.372 C62.657,445.264 66.581,449.749 69.085,454.615 C74.091,464.374 79.21,473.86 85.046,483.64 C87.745,488.162 91.823,492.021 93.032,497.429 C88.702,494.44 85.087,488.527 82.142,483.64 C76.165,473.698 70.54,463.271 64.731,452.436 C61.962,447.296 57.806,442.803 56.013,437.199 C48.743,435.757 42.126,433.669 34.237,432.839 C30.56,428.55 26.067,425.049 19.001,424.128 C16.632,412.589 17.546,395.398 16.828,379.135 C16.251,365.951 13.79,352.55 13.2,339.956 C12.708,329.487 12.989,319.053 12.483,307.296 C12.216,301.503 11.021,295.519 11.021,289.88 C11.021,282.16 12.981,274.728 10.304,267.38 C13.192,263.991 19.043,263.548 21.911,260.124 C33.492,258.64 45.958,260.11 56.013,262.296 C55.937,254.583 50.824,245.766 50.212,236.175 C47.681,234.171 48.624,240.499 45.129,239.811 C33.604,239.74 28.423,225.502 24.085,215.131 C20.583,206.771 14.29,196.758 19.731,184.65 C21.841,182.162 26.903,182.632 27.712,178.85 C27.474,175.7 23.282,176.501 21.911,174.49 C18.685,169.33 15.788,161.968 13.917,154.177 C11.294,143.131 10.19,133.273 9.571,119.337 C8.946,105.106 9.108,93.498 13.2,82.331 C15.372,76.404 18.812,71.539 20.456,65.64 C26.095,61.843 31.544,57.849 39.321,56.204 C43.013,34.062 70.146,12.652 95.198,9.755 C97.969,9.439 101.513,9.087 103.91,9.031 C126.48,8.503 150.858,11.935 169.94,18.467" fill="#1A1919"/>
  </g>
</svg>
